<svg xmlns="http://www.w3.org/2000/svg" viewBox="0 0 1920 1080" preserveAspectRatio="xMidYMid slice">
  <defs>
    <radialGradient id="g1" cx="72%" cy="30%" r="70%">
      <stop offset="0" stop-color="#122029" stop-opacity="0.9"/>
      <stop offset="0.5" stop-color="#0a1017" stop-opacity="0.7"/>
      <stop offset="1" stop-color="#05060a"/>
    </radialGradient>
    <radialGradient id="g2" cx="50%" cy="50%" r="50%">
      <stop offset="0" stop-color="#7ee7f2" stop-opacity="0.28"/>
      <stop offset="1" stop-color="#7ee7f2" stop-opacity="0"/>
    </radialGradient>
    <linearGradient id="g3" x1="0" y1="0" x2="1" y2="1">
      <stop offset="0" stop-color="#7ee7f2" stop-opacity="0.55"/>
      <stop offset="1" stop-color="#b7a6ff" stop-opacity="0.35"/>
    </linearGradient>
  </defs>
  <rect width="1920" height="1080" fill="url(#g1)"/>
  <g stroke="#ffffff" stroke-opacity="0.045">
    <path d="M0 120h1920M0 240h1920M0 360h1920M0 480h1920M0 600h1920M0 720h1920M0 840h1920M0 960h1920"/>
    <path d="M160 0v1080M320 0v1080M480 0v1080M640 0v1080M800 0v1080M960 0v1080M1120 0v1080M1280 0v1080M1440 0v1080M1600 0v1080M1760 0v1080"/>
  </g>
  <circle cx="1380" cy="330" r="300" fill="url(#g2)"/>
  <g stroke="url(#g3)" stroke-width="1.2" fill="none">
    <path d="M1200 760c80-130 190-210 340-240 130-26 250 8 350 100"/>
    <path d="M1150 840c100-60 220-70 330-30 90 32 150 96 180 192"/>
    <path d="M1330 540c-40 60-36 130 12 210"/>
  </g>
  <g fill="#7ee7f2" opacity="0.5">
    <circle cx="1380" cy="330" r="2.5"/>
    <circle cx="1200" cy="760" r="2"/>
    <circle cx="1860" cy="610" r="2.5"/>
    <circle cx="1480" cy="690" r="1.8"/>
    <circle cx="1620" cy="540" r="2"/>
  </g>
  <rect x="40" y="40" width="70" height="70" fill="none" stroke="#7ee7f2" stroke-opacity="0.4" stroke-width="1"/>
  <rect x="1810" y="970" width="70" height="70" fill="none" stroke="#7ee7f2" stroke-opacity="0.4" stroke-width="1"/>
</svg>
