<svg xmlns="http://www.w3.org/2000/svg" viewBox="0 0 1600 900" preserveAspectRatio="xMidYMid slice">
  <defs>
    <linearGradient id="bg" x1="0" y1="0" x2="1" y2="1">
      <stop offset="0" stop-color="#0d0c10"/>
      <stop offset="1" stop-color="#060608"/>
    </linearGradient>
    <linearGradient id="redGrad" x1="0" y1="0" x2="1" y2="1">
      <stop offset="0" stop-color="#ff7a80"/>
      <stop offset="0.45" stop-color="#f22f38"/>
      <stop offset="1" stop-color="#b91220"/>
    </linearGradient>
    <radialGradient id="glow" cx="58%" cy="40%" r="62%">
      <stop offset="0" stop-color="#f22f38" stop-opacity="0.20"/>
      <stop offset="1" stop-color="#f22f38" stop-opacity="0"/>
    </radialGradient>
    <pattern id="halftone" width="72" height="72" patternUnits="userSpaceOnUse">
      <circle cx="18" cy="18" r="5" fill="#f22f38" opacity="0.10"/>
      <circle cx="54" cy="54" r="9" fill="#f22f38" opacity="0.06"/>
    </pattern>
  </defs>
  <rect width="1600" height="900" fill="url(#bg)"/>
  <rect width="1600" height="900" fill="url(#glow)"/>
  <rect width="1600" height="900" fill="url(#halftone)"/>

  <g stroke="#ffffff" stroke-opacity="0.05" stroke-width="2">
    <line x1="-60" y1="760" x2="240" y2="460"/>
    <line x1="20" y1="800" x2="320" y2="500"/>
    <line x1="100" y1="840" x2="400" y2="540"/>
    <line x1="180" y1="880" x2="480" y2="580"/>
  </g>

  <text x="818" y="638" font-family="'Noto Sans SC','PingFang SC','Microsoft YaHei',sans-serif" font-size="620" font-weight="900" text-anchor="middle" fill="none" stroke="#ffffff" stroke-opacity="0.07" stroke-width="3" transform="rotate(-2 800 450)">平面</text>
  <text x="800" y="632" font-family="'Noto Sans SC','PingFang SC','Microsoft YaHei',sans-serif" font-size="620" font-weight="900" text-anchor="middle" fill="url(#redGrad)">平面</text>
  <text x="800" y="632" font-family="'Noto Sans SC','PingFang SC','Microsoft YaHei',sans-serif" font-size="620" font-weight="900" text-anchor="middle" fill="none" stroke="#ffb1b6" stroke-opacity="0.28" stroke-width="1.5">平面</text>

  <text x="80" y="92" font-family="'SF Mono',Consolas,monospace" font-size="15" font-weight="600" letter-spacing="4" fill="#ffffff" opacity="0.55">HUBINGXIN — GRAPHIC PORTFOLIO</text>
  <rect x="1460" y="70" width="16" height="16" fill="#f22f38"/>
  <text x="1490" y="84" text-anchor="end" font-family="'SF Mono',Consolas,monospace" font-size="15" letter-spacing="2" fill="#ffffff" opacity="0.55">2026</text>

  <g transform="translate(1470 210)">
    <line x1="-26" y1="0" x2="26" y2="0" stroke="#ffffff" stroke-opacity="0.35" stroke-width="1"/>
    <line x1="0" y1="-26" x2="0" y2="26" stroke="#ffffff" stroke-opacity="0.35" stroke-width="1"/>
    <circle cx="-46" cy="-46" r="10" fill="none" stroke="#00b8ff" stroke-width="3"/>
    <circle cx="46" cy="-46" r="10" fill="none" stroke="#ff00a0" stroke-width="3"/>
    <circle cx="-46" cy="46" r="10" fill="none" stroke="#ffd200" stroke-width="3"/>
    <circle cx="46" cy="46" r="10" fill="none" stroke="#ffffff" stroke-opacity="0.8" stroke-width="3"/>
  </g>
  <text x="1470" y="272" text-anchor="middle" font-family="'SF Mono',Consolas,monospace" font-size="12" letter-spacing="2" fill="#ffffff" opacity="0.4">CMYK</text>

  <rect x="150" y="540" width="170" height="130" fill="none" stroke="#ffffff" stroke-opacity="0.14" stroke-width="2"/>
  <circle cx="235" cy="605" r="26" fill="none" stroke="#f22f38" stroke-opacity="0.8" stroke-width="2"/>
  <circle cx="235" cy="605" r="5" fill="#f22f38"/>
  <rect x="278" y="618" width="18" height="18" fill="#f22f38"/>

  <line x1="0" y1="900" x2="300" y2="600" stroke="#f22f38" stroke-opacity="0.5" stroke-width="2"/>

  <text x="1520" y="812" text-anchor="end" font-family="'Helvetica Neue',sans-serif" font-size="15" font-weight="600" letter-spacing="3" fill="#ffffff" opacity="0.5">BRAND · POSTER · EVENT · E-COMMERCE</text>
</svg>
